<svg width="358" height="56" viewBox="0 0 358 56" fill="none" xmlns="http://www.w3.org/2000/svg">
<path d="M125.18 34.8594H121.523V45H120.031V34.8594H116.383V33.625H125.18V34.8594ZM128.086 37.5703C128.727 36.7839 129.56 36.3906 130.586 36.3906C132.372 36.3906 133.273 37.3984 133.289 39.4141V45H131.844V39.4062C131.839 38.7969 131.698 38.3464 131.422 38.0547C131.151 37.763 130.727 37.6172 130.148 37.6172C129.68 37.6172 129.268 37.7422 128.914 37.9922C128.56 38.2422 128.284 38.5703 128.086 38.9766V45H126.641V33H128.086V37.5703ZM138.961 45.1562C137.815 45.1562 136.883 44.7812 136.164 44.0312C135.445 43.276 135.086 42.2682 135.086 41.0078V40.7422C135.086 39.9036 135.245 39.1562 135.562 38.5C135.885 37.8385 136.333 37.3229 136.906 36.9531C137.484 36.5781 138.109 36.3906 138.781 36.3906C139.88 36.3906 140.734 36.7526 141.344 37.4766C141.953 38.2005 142.258 39.237 142.258 40.5859V41.1875H136.531C136.552 42.0208 136.794 42.6953 137.258 43.2109C137.727 43.7214 138.32 43.9766 139.039 43.9766C139.549 43.9766 139.982 43.8724 140.336 43.6641C140.69 43.4557 141 43.1797 141.266 42.8359L142.148 43.5234C141.44 44.612 140.378 45.1562 138.961 45.1562ZM138.781 37.5781C138.198 37.5781 137.708 37.7917 137.312 38.2188C136.917 38.6406 136.672 39.2344 136.578 40H140.812V39.8906C140.771 39.1562 140.573 38.5885 140.219 38.1875C139.865 37.7812 139.385 37.5781 138.781 37.5781ZM150.586 41.4141L150.805 42.9141L151.125 41.5625L153.375 33.625H154.641L156.836 41.5625L157.148 42.9375L157.391 41.4062L159.156 33.625H160.664L157.906 45H156.539L154.195 36.7109L154.016 35.8438L153.836 36.7109L151.406 45H150.039L147.289 33.625H148.789L150.586 41.4141ZM161.477 40.6953C161.477 39.8672 161.638 39.1224 161.961 38.4609C162.289 37.7995 162.742 37.2891 163.32 36.9297C163.904 36.5703 164.568 36.3906 165.312 36.3906C166.464 36.3906 167.393 36.7891 168.102 37.5859C168.815 38.3828 169.172 39.4427 169.172 40.7656V40.8672C169.172 41.6901 169.013 42.4297 168.695 43.0859C168.383 43.737 167.932 44.2448 167.344 44.6094C166.76 44.974 166.089 45.1562 165.328 45.1562C164.182 45.1562 163.253 44.7578 162.539 43.9609C161.831 43.1641 161.477 42.1094 161.477 40.7969V40.6953ZM162.93 40.8672C162.93 41.8047 163.146 42.5573 163.578 43.125C164.016 43.6927 164.599 43.9766 165.328 43.9766C166.062 43.9766 166.646 43.6901 167.078 43.1172C167.51 42.5391 167.727 41.7318 167.727 40.6953C167.727 39.7682 167.505 39.0182 167.062 38.4453C166.625 37.8672 166.042 37.5781 165.312 37.5781C164.599 37.5781 164.023 37.862 163.586 38.4297C163.148 38.9974 162.93 39.8099 162.93 40.8672ZM175.07 37.8438C174.852 37.8073 174.615 37.7891 174.359 37.7891C173.411 37.7891 172.768 38.1927 172.43 39V45H170.984V36.5469H172.391L172.414 37.5234C172.888 36.7682 173.56 36.3906 174.43 36.3906C174.711 36.3906 174.924 36.4271 175.07 36.5V37.8438ZM178.766 41.0859L177.859 42.0312V45H176.414V33H177.859V40.2578L178.633 39.3281L181.266 36.5469H183.023L179.734 40.0781L183.406 45H181.711L178.766 41.0859ZM187.867 45.1562C186.721 45.1562 185.789 44.7812 185.07 44.0312C184.352 43.276 183.992 42.2682 183.992 41.0078V40.7422C183.992 39.9036 184.151 39.1562 184.469 38.5C184.792 37.8385 185.24 37.3229 185.812 36.9531C186.391 36.5781 187.016 36.3906 187.688 36.3906C188.786 36.3906 189.641 36.7526 190.25 37.4766C190.859 38.2005 191.164 39.237 191.164 40.5859V41.1875H185.438C185.458 42.0208 185.701 42.6953 186.164 43.2109C186.633 43.7214 187.227 43.9766 187.945 43.9766C188.456 43.9766 188.888 43.8724 189.242 43.6641C189.596 43.4557 189.906 43.1797 190.172 42.8359L191.055 43.5234C190.346 44.612 189.284 45.1562 187.867 45.1562ZM187.688 37.5781C187.104 37.5781 186.615 37.7917 186.219 38.2188C185.823 38.6406 185.578 39.2344 185.484 40H189.719V39.8906C189.677 39.1562 189.479 38.5885 189.125 38.1875C188.771 37.7812 188.292 37.5781 187.688 37.5781ZM196.93 37.8438C196.711 37.8073 196.474 37.7891 196.219 37.7891C195.271 37.7891 194.628 38.1927 194.289 39V45H192.844V36.5469H194.25L194.273 37.5234C194.747 36.7682 195.419 36.3906 196.289 36.3906C196.57 36.3906 196.784 36.4271 196.93 36.5V37.8438ZM203.188 42.7578C203.188 42.3672 203.039 42.0651 202.742 41.8516C202.451 41.6328 201.938 41.4453 201.203 41.2891C200.474 41.1328 199.893 40.9453 199.461 40.7266C199.034 40.5078 198.716 40.2474 198.508 39.9453C198.305 39.6432 198.203 39.2839 198.203 38.8672C198.203 38.1745 198.495 37.5885 199.078 37.1094C199.667 36.6302 200.417 36.3906 201.328 36.3906C202.286 36.3906 203.062 36.638 203.656 37.1328C204.255 37.6276 204.555 38.2604 204.555 39.0312H203.102C203.102 38.6354 202.932 38.2943 202.594 38.0078C202.26 37.7214 201.839 37.5781 201.328 37.5781C200.802 37.5781 200.391 37.6927 200.094 37.9219C199.797 38.151 199.648 38.4505 199.648 38.8203C199.648 39.1693 199.786 39.4323 200.062 39.6094C200.339 39.7865 200.836 39.9557 201.555 40.1172C202.279 40.2786 202.865 40.4714 203.312 40.6953C203.76 40.9193 204.091 41.1901 204.305 41.5078C204.523 41.8203 204.633 42.2031 204.633 42.6562C204.633 43.4115 204.331 44.0182 203.727 44.4766C203.122 44.9297 202.339 45.1562 201.375 45.1562C200.698 45.1562 200.099 45.0365 199.578 44.7969C199.057 44.5573 198.648 44.224 198.352 43.7969C198.06 43.3646 197.914 42.8984 197.914 42.3984H199.359C199.385 42.8828 199.578 43.2682 199.938 43.5547C200.302 43.8359 200.781 43.9766 201.375 43.9766C201.922 43.9766 202.359 43.8672 202.688 43.6484C203.021 43.4245 203.188 43.1276 203.188 42.7578ZM210.711 45V33.625H214.43C215.664 33.625 216.591 33.8802 217.211 34.3906C217.836 34.901 218.148 35.6562 218.148 36.6562C218.148 37.1875 217.997 37.6589 217.695 38.0703C217.393 38.4766 216.982 38.7917 216.461 39.0156C217.076 39.1875 217.56 39.5156 217.914 40C218.273 40.4792 218.453 41.0521 218.453 41.7188C218.453 42.7396 218.122 43.5417 217.461 44.125C216.799 44.7083 215.865 45 214.656 45H210.711ZM212.211 39.6797V43.7734H214.688C215.385 43.7734 215.935 43.5938 216.336 43.2344C216.742 42.8698 216.945 42.3698 216.945 41.7344C216.945 40.3646 216.201 39.6797 214.711 39.6797H212.211ZM212.211 38.4766H214.477C215.133 38.4766 215.656 38.3125 216.047 37.9844C216.443 37.6562 216.641 37.2109 216.641 36.6484C216.641 36.0234 216.458 35.5703 216.094 35.2891C215.729 35.0026 215.174 34.8594 214.43 34.8594H212.211V38.4766ZM222.023 45H220.578V33H222.023V45ZM223.961 40.6953C223.961 39.8672 224.122 39.1224 224.445 38.4609C224.773 37.7995 225.227 37.2891 225.805 36.9297C226.388 36.5703 227.052 36.3906 227.797 36.3906C228.948 36.3906 229.878 36.7891 230.586 37.5859C231.299 38.3828 231.656 39.4427 231.656 40.7656V40.8672C231.656 41.6901 231.497 42.4297 231.18 43.0859C230.867 43.737 230.417 44.2448 229.828 44.6094C229.245 44.974 228.573 45.1562 227.812 45.1562C226.667 45.1562 225.737 44.7578 225.023 43.9609C224.315 43.1641 223.961 42.1094 223.961 40.7969V40.6953ZM225.414 40.8672C225.414 41.8047 225.63 42.5573 226.062 43.125C226.5 43.6927 227.083 43.9766 227.812 43.9766C228.547 43.9766 229.13 43.6901 229.562 43.1172C229.995 42.5391 230.211 41.7318 230.211 40.6953C230.211 39.7682 229.99 39.0182 229.547 38.4453C229.109 37.8672 228.526 37.5781 227.797 37.5781C227.083 37.5781 226.508 37.862 226.07 38.4297C225.633 38.9974 225.414 39.8099 225.414 40.8672ZM233.125 40.7031C233.125 39.3854 233.43 38.3385 234.039 37.5625C234.648 36.7812 235.456 36.3906 236.461 36.3906C237.492 36.3906 238.297 36.7552 238.875 37.4844L238.945 36.5469H240.266V44.7969C240.266 45.8906 239.94 46.7526 239.289 47.3828C238.643 48.013 237.773 48.3281 236.68 48.3281C236.07 48.3281 235.474 48.1979 234.891 47.9375C234.307 47.6771 233.862 47.3203 233.555 46.8672L234.305 46C234.924 46.7656 235.682 47.1484 236.578 47.1484C237.281 47.1484 237.828 46.9505 238.219 46.5547C238.615 46.1589 238.812 45.6016 238.812 44.8828V44.1562C238.234 44.8229 237.445 45.1562 236.445 45.1562C235.456 45.1562 234.654 44.7578 234.039 43.9609C233.43 43.1641 233.125 42.0781 233.125 40.7031ZM234.578 40.8672C234.578 41.8203 234.773 42.5703 235.164 43.1172C235.555 43.6589 236.102 43.9297 236.805 43.9297C237.716 43.9297 238.385 43.5156 238.812 42.6875V38.8281C238.37 38.0208 237.706 37.6172 236.82 37.6172C236.117 37.6172 235.568 37.8906 235.172 38.4375C234.776 38.9844 234.578 39.7943 234.578 40.8672Z" fill="black" fill-opacity="0.54"/>
<path d="M15.0234 21.8438C14.3906 22.6016 13.4961 23.1914 12.3398 23.6133C11.1836 24.0273 9.90234 24.2344 8.49609 24.2344C7.01953 24.2344 5.72266 23.9141 4.60547 23.2734C3.49609 22.625 2.63672 21.6875 2.02734 20.4609C1.42578 19.2344 1.11719 17.793 1.10156 16.1367V14.9766C1.10156 13.2734 1.38672 11.8008 1.95703 10.5586C2.53516 9.30859 3.36328 8.35547 4.44141 7.69922C5.52734 7.03516 6.79688 6.70312 8.25 6.70312C10.2734 6.70312 11.8555 7.1875 12.9961 8.15625C14.1367 9.11719 14.8125 10.5195 15.0234 12.3633H11.6016C11.4453 11.3867 11.0977 10.6719 10.5586 10.2188C10.0273 9.76562 9.29297 9.53906 8.35547 9.53906C7.16016 9.53906 6.25 9.98828 5.625 10.8867C5 11.7852 4.68359 13.1211 4.67578 14.8945V15.9844C4.67578 17.7734 5.01562 19.125 5.69531 20.0391C6.375 20.9531 7.37109 21.4102 8.68359 21.4102C10.0039 21.4102 10.9453 21.1289 11.5078 20.5664V17.625H8.30859V15.0352H15.0234V21.8438ZM23.4961 24.2344C21.6367 24.2344 20.1211 23.6641 18.9492 22.5234C17.7852 21.3828 17.2031 19.8633 17.2031 17.9648V17.6367C17.2031 16.3633 17.4492 15.2266 17.9414 14.2266C18.4336 13.2188 19.1289 12.4453 20.0273 11.9062C20.9336 11.3594 21.9648 11.0859 23.1211 11.0859C24.8555 11.0859 26.2188 11.6328 27.2109 12.7266C28.2109 13.8203 28.7109 15.3711 28.7109 17.3789V18.7617H20.6367C20.7461 19.5898 21.0742 20.2539 21.6211 20.7539C22.1758 21.2539 22.875 21.5039 23.7188 21.5039C25.0234 21.5039 26.043 21.0312 26.7773 20.0859L28.4414 21.9492C27.9336 22.668 27.2461 23.2305 26.3789 23.6367C25.5117 24.0352 24.5508 24.2344 23.4961 24.2344ZM23.1094 13.8281C22.4375 13.8281 21.8906 14.0547 21.4688 14.5078C21.0547 14.9609 20.7891 15.6094 20.6719 16.4531H25.3828V16.1836C25.3672 15.4336 25.1641 14.8555 24.7734 14.4492C24.3828 14.0352 23.8281 13.8281 23.1094 13.8281ZM33.7617 11.3203L33.8672 12.7852C34.7734 11.6523 35.9883 11.0859 37.5117 11.0859C38.8555 11.0859 39.8555 11.4805 40.5117 12.2695C41.168 13.0586 41.5039 14.2383 41.5195 15.8086V24H38.1328V15.8906C38.1328 15.1719 37.9766 14.6523 37.6641 14.332C37.3516 14.0039 36.832 13.8398 36.1055 13.8398C35.1523 13.8398 34.4375 14.2461 33.9609 15.0586V24H30.5742V11.3203H33.7617ZM49.9336 24.2344C48.0742 24.2344 46.5586 23.6641 45.3867 22.5234C44.2227 21.3828 43.6406 19.8633 43.6406 17.9648V17.6367C43.6406 16.3633 43.8867 15.2266 44.3789 14.2266C44.8711 13.2188 45.5664 12.4453 46.4648 11.9062C47.3711 11.3594 48.4023 11.0859 49.5586 11.0859C51.293 11.0859 52.6562 11.6328 53.6484 12.7266C54.6484 13.8203 55.1484 15.3711 55.1484 17.3789V18.7617H47.0742C47.1836 19.5898 47.5117 20.2539 48.0586 20.7539C48.6133 21.2539 49.3125 21.5039 50.1562 21.5039C51.4609 21.5039 52.4805 21.0312 53.2148 20.0859L54.8789 21.9492C54.3711 22.668 53.6836 23.2305 52.8164 23.6367C51.9492 24.0352 50.9883 24.2344 49.9336 24.2344ZM49.5469 13.8281C48.875 13.8281 48.3281 14.0547 47.9062 14.5078C47.4922 14.9609 47.2266 15.6094 47.1094 16.4531H51.8203V16.1836C51.8047 15.4336 51.6016 14.8555 51.2109 14.4492C50.8203 14.0352 50.2656 13.8281 49.5469 13.8281ZM64.207 14.4961C63.7461 14.4336 63.3398 14.4023 62.9883 14.4023C61.707 14.4023 60.8672 14.8359 60.4688 15.7031V24H57.082V11.3203H60.2812L60.375 12.832C61.0547 11.668 61.9961 11.0859 63.1992 11.0859C63.5742 11.0859 63.9258 11.1367 64.2539 11.2383L64.207 14.4961ZM72.8438 24C72.6875 23.6953 72.5742 23.3164 72.5039 22.8633C71.6836 23.7773 70.6172 24.2344 69.3047 24.2344C68.0625 24.2344 67.0312 23.875 66.2109 23.1562C65.3984 22.4375 64.9922 21.5312 64.9922 20.4375C64.9922 19.0938 65.4883 18.0625 66.4805 17.3438C67.4805 16.625 68.9219 16.2617 70.8047 16.2539H72.3633V15.5273C72.3633 14.9414 72.2109 14.4727 71.9062 14.1211C71.6094 13.7695 71.1367 13.5938 70.4883 13.5938C69.918 13.5938 69.4688 13.7305 69.1406 14.0039C68.8203 14.2773 68.6602 14.6523 68.6602 15.1289H65.2734C65.2734 14.3945 65.5 13.7148 65.9531 13.0898C66.4062 12.4648 67.0469 11.9766 67.875 11.625C68.7031 11.2656 69.6328 11.0859 70.6641 11.0859C72.2266 11.0859 73.4648 11.4805 74.3789 12.2695C75.3008 13.0508 75.7617 14.1523 75.7617 15.5742V21.0703C75.7695 22.2734 75.9375 23.1836 76.2656 23.8008V24H72.8438ZM70.043 21.6445C70.543 21.6445 71.0039 21.5352 71.4258 21.3164C71.8477 21.0898 72.1602 20.7891 72.3633 20.4141V18.2344H71.0977C69.4023 18.2344 68.5 18.8203 68.3906 19.9922L68.3789 20.1914C68.3789 20.6133 68.5273 20.9609 68.8242 21.2344C69.1211 21.5078 69.5273 21.6445 70.043 21.6445ZM82.418 8.20312V11.3203H84.5859V13.8047H82.418V20.1328C82.418 20.6016 82.5078 20.9375 82.6875 21.1406C82.8672 21.3438 83.2109 21.4453 83.7188 21.4453C84.0938 21.4453 84.4258 21.418 84.7148 21.3633V23.9297C84.0508 24.1328 83.3672 24.2344 82.6641 24.2344C80.2891 24.2344 79.0781 23.0352 79.0312 20.6367V13.8047H77.1797V11.3203H79.0312V8.20312H82.418ZM90.0469 24H86.6484V11.3203H90.0469V24ZM86.4492 8.03906C86.4492 7.53125 86.6172 7.11328 86.9531 6.78516C87.2969 6.45703 87.7617 6.29297 88.3477 6.29297C88.9258 6.29297 89.3867 6.45703 89.7305 6.78516C90.0742 7.11328 90.2461 7.53125 90.2461 8.03906C90.2461 8.55469 90.0703 8.97656 89.7188 9.30469C89.375 9.63281 88.918 9.79688 88.3477 9.79688C87.7773 9.79688 87.3164 9.63281 86.9648 9.30469C86.6211 8.97656 86.4492 8.55469 86.4492 8.03906ZM92.3203 17.543C92.3203 16.2852 92.5625 15.1641 93.0469 14.1797C93.5312 13.1953 94.2266 12.4336 95.1328 11.8945C96.0469 11.3555 97.1055 11.0859 98.3086 11.0859C100.02 11.0859 101.414 11.6094 102.492 12.6562C103.578 13.7031 104.184 15.125 104.309 16.9219L104.332 17.7891C104.332 19.7344 103.789 21.2969 102.703 22.4766C101.617 23.6484 100.16 24.2344 98.332 24.2344C96.5039 24.2344 95.043 23.6484 93.9492 22.4766C92.8633 21.3047 92.3203 19.7109 92.3203 17.6953V17.543ZM95.707 17.7891C95.707 18.9922 95.9336 19.9141 96.3867 20.5547C96.8398 21.1875 97.4883 21.5039 98.332 21.5039C99.1523 21.5039 99.793 21.1914 100.254 20.5664C100.715 19.9336 100.945 18.9258 100.945 17.543C100.945 16.3633 100.715 15.4492 100.254 14.8008C99.793 14.1523 99.1445 13.8281 98.3086 13.8281C97.4805 13.8281 96.8398 14.1523 96.3867 14.8008C95.9336 15.4414 95.707 16.4375 95.707 17.7891ZM109.535 11.3203L109.641 12.7852C110.547 11.6523 111.762 11.0859 113.285 11.0859C114.629 11.0859 115.629 11.4805 116.285 12.2695C116.941 13.0586 117.277 14.2383 117.293 15.8086V24H113.906V15.8906C113.906 15.1719 113.75 14.6523 113.438 14.332C113.125 14.0039 112.605 13.8398 111.879 13.8398C110.926 13.8398 110.211 14.2461 109.734 15.0586V24H106.348V11.3203H109.535ZM127.219 24C127.062 23.6953 126.949 23.3164 126.879 22.8633C126.059 23.7773 124.992 24.2344 123.68 24.2344C122.438 24.2344 121.406 23.875 120.586 23.1562C119.773 22.4375 119.367 21.5312 119.367 20.4375C119.367 19.0938 119.863 18.0625 120.855 17.3438C121.855 16.625 123.297 16.2617 125.18 16.2539H126.738V15.5273C126.738 14.9414 126.586 14.4727 126.281 14.1211C125.984 13.7695 125.512 13.5938 124.863 13.5938C124.293 13.5938 123.844 13.7305 123.516 14.0039C123.195 14.2773 123.035 14.6523 123.035 15.1289H119.648C119.648 14.3945 119.875 13.7148 120.328 13.0898C120.781 12.4648 121.422 11.9766 122.25 11.625C123.078 11.2656 124.008 11.0859 125.039 11.0859C126.602 11.0859 127.84 11.4805 128.754 12.2695C129.676 13.0508 130.137 14.1523 130.137 15.5742V21.0703C130.145 22.2734 130.312 23.1836 130.641 23.8008V24H127.219ZM124.418 21.6445C124.918 21.6445 125.379 21.5352 125.801 21.3164C126.223 21.0898 126.535 20.7891 126.738 20.4141V18.2344H125.473C123.777 18.2344 122.875 18.8203 122.766 19.9922L122.754 20.1914C122.754 20.6133 122.902 20.9609 123.199 21.2344C123.496 21.5078 123.902 21.6445 124.418 21.6445ZM136.312 24H132.914V6H136.312V24ZM159.199 24H155.684V16.6875H148.828V24H145.312V6.9375H148.828V13.8516H155.684V6.9375H159.199V24ZM161.531 17.543C161.531 16.2852 161.773 15.1641 162.258 14.1797C162.742 13.1953 163.438 12.4336 164.344 11.8945C165.258 11.3555 166.316 11.0859 167.52 11.0859C169.23 11.0859 170.625 11.6094 171.703 12.6562C172.789 13.7031 173.395 15.125 173.52 16.9219L173.543 17.7891C173.543 19.7344 173 21.2969 171.914 22.4766C170.828 23.6484 169.371 24.2344 167.543 24.2344C165.715 24.2344 164.254 23.6484 163.16 22.4766C162.074 21.3047 161.531 19.7109 161.531 17.6953V17.543ZM164.918 17.7891C164.918 18.9922 165.145 19.9141 165.598 20.5547C166.051 21.1875 166.699 21.5039 167.543 21.5039C168.363 21.5039 169.004 21.1914 169.465 20.5664C169.926 19.9336 170.156 18.9258 170.156 17.543C170.156 16.3633 169.926 15.4492 169.465 14.8008C169.004 14.1523 168.355 13.8281 167.52 13.8281C166.691 13.8281 166.051 14.1523 165.598 14.8008C165.145 15.4414 164.918 16.4375 164.918 17.7891ZM178.805 11.3203L178.91 12.7383C179.809 11.6367 181.023 11.0859 182.555 11.0859C184.188 11.0859 185.309 11.7305 185.918 13.0195C186.809 11.7305 188.078 11.0859 189.727 11.0859C191.102 11.0859 192.125 11.4883 192.797 12.293C193.469 13.0898 193.805 14.293 193.805 15.9023V24H190.406V15.9141C190.406 15.1953 190.266 14.6719 189.984 14.3438C189.703 14.0078 189.207 13.8398 188.496 13.8398C187.48 13.8398 186.777 14.3242 186.387 15.293L186.398 24H183.012V15.9258C183.012 15.1914 182.867 14.6602 182.578 14.332C182.289 14.0039 181.797 13.8398 181.102 13.8398C180.141 13.8398 179.445 14.2383 179.016 15.0352V24H175.629V11.3203H178.805ZM202.254 24.2344C200.395 24.2344 198.879 23.6641 197.707 22.5234C196.543 21.3828 195.961 19.8633 195.961 17.9648V17.6367C195.961 16.3633 196.207 15.2266 196.699 14.2266C197.191 13.2188 197.887 12.4453 198.785 11.9062C199.691 11.3594 200.723 11.0859 201.879 11.0859C203.613 11.0859 204.977 11.6328 205.969 12.7266C206.969 13.8203 207.469 15.3711 207.469 17.3789V18.7617H199.395C199.504 19.5898 199.832 20.2539 200.379 20.7539C200.934 21.2539 201.633 21.5039 202.477 21.5039C203.781 21.5039 204.801 21.0312 205.535 20.0859L207.199 21.9492C206.691 22.668 206.004 23.2305 205.137 23.6367C204.27 24.0352 203.309 24.2344 202.254 24.2344ZM201.867 13.8281C201.195 13.8281 200.648 14.0547 200.227 14.5078C199.812 14.9609 199.547 15.6094 199.43 16.4531H204.141V16.1836C204.125 15.4336 203.922 14.8555 203.531 14.4492C203.141 14.0352 202.586 13.8281 201.867 13.8281ZM219.34 24H215.824V6.9375H219.34V24ZM225.562 11.3203L225.668 12.7383C226.566 11.6367 227.781 11.0859 229.312 11.0859C230.945 11.0859 232.066 11.7305 232.676 13.0195C233.566 11.7305 234.836 11.0859 236.484 11.0859C237.859 11.0859 238.883 11.4883 239.555 12.293C240.227 13.0898 240.562 14.293 240.562 15.9023V24H237.164V15.9141C237.164 15.1953 237.023 14.6719 236.742 14.3438C236.461 14.0078 235.965 13.8398 235.254 13.8398C234.238 13.8398 233.535 14.3242 233.145 15.293L233.156 24H229.77V15.9258C229.77 15.1914 229.625 14.6602 229.336 14.332C229.047 14.0039 228.555 13.8398 227.859 13.8398C226.898 13.8398 226.203 14.2383 225.773 15.0352V24H222.387V11.3203H225.562ZM254.59 17.7773C254.59 19.7305 254.145 21.2969 253.254 22.4766C252.371 23.6484 251.176 24.2344 249.668 24.2344C248.387 24.2344 247.352 23.7891 246.562 22.8984V28.875H243.176V11.3203H246.316L246.434 12.5625C247.254 11.5781 248.324 11.0859 249.645 11.0859C251.207 11.0859 252.422 11.6641 253.289 12.8203C254.156 13.9766 254.59 15.5703 254.59 17.6016V17.7773ZM251.203 17.5312C251.203 16.3516 250.992 15.4414 250.57 14.8008C250.156 14.1602 249.551 13.8398 248.754 13.8398C247.691 13.8398 246.961 14.2461 246.562 15.0586V20.25C246.977 21.0859 247.715 21.5039 248.777 21.5039C250.395 21.5039 251.203 20.1797 251.203 17.5312ZM263.824 14.4961C263.363 14.4336 262.957 14.4023 262.605 14.4023C261.324 14.4023 260.484 14.8359 260.086 15.7031V24H256.699V11.3203H259.898L259.992 12.832C260.672 11.668 261.613 11.0859 262.816 11.0859C263.191 11.0859 263.543 11.1367 263.871 11.2383L263.824 14.4961ZM264.516 17.543C264.516 16.2852 264.758 15.1641 265.242 14.1797C265.727 13.1953 266.422 12.4336 267.328 11.8945C268.242 11.3555 269.301 11.0859 270.504 11.0859C272.215 11.0859 273.609 11.6094 274.688 12.6562C275.773 13.7031 276.379 15.125 276.504 16.9219L276.527 17.7891C276.527 19.7344 275.984 21.2969 274.898 22.4766C273.812 23.6484 272.355 24.2344 270.527 24.2344C268.699 24.2344 267.238 23.6484 266.145 22.4766C265.059 21.3047 264.516 19.7109 264.516 17.6953V17.543ZM267.902 17.7891C267.902 18.9922 268.129 19.9141 268.582 20.5547C269.035 21.1875 269.684 21.5039 270.527 21.5039C271.348 21.5039 271.988 21.1914 272.449 20.5664C272.91 19.9336 273.141 18.9258 273.141 17.543C273.141 16.3633 272.91 15.4492 272.449 14.8008C271.988 14.1523 271.34 13.8281 270.504 13.8281C269.676 13.8281 269.035 14.1523 268.582 14.8008C268.129 15.4414 267.902 16.4375 267.902 17.7891ZM283.172 19.8633L285.527 11.3203H289.066L284.789 24H281.555L277.277 11.3203H280.816L283.172 19.8633ZM296.238 24.2344C294.379 24.2344 292.863 23.6641 291.691 22.5234C290.527 21.3828 289.945 19.8633 289.945 17.9648V17.6367C289.945 16.3633 290.191 15.2266 290.684 14.2266C291.176 13.2188 291.871 12.4453 292.77 11.9062C293.676 11.3594 294.707 11.0859 295.863 11.0859C297.598 11.0859 298.961 11.6328 299.953 12.7266C300.953 13.8203 301.453 15.3711 301.453 17.3789V18.7617H293.379C293.488 19.5898 293.816 20.2539 294.363 20.7539C294.918 21.2539 295.617 21.5039 296.461 21.5039C297.766 21.5039 298.785 21.0312 299.52 20.0859L301.184 21.9492C300.676 22.668 299.988 23.2305 299.121 23.6367C298.254 24.0352 297.293 24.2344 296.238 24.2344ZM295.852 13.8281C295.18 13.8281 294.633 14.0547 294.211 14.5078C293.797 14.9609 293.531 15.6094 293.414 16.4531H298.125V16.1836C298.109 15.4336 297.906 14.8555 297.516 14.4492C297.125 14.0352 296.57 13.8281 295.852 13.8281ZM306.562 11.3203L306.668 12.7383C307.566 11.6367 308.781 11.0859 310.312 11.0859C311.945 11.0859 313.066 11.7305 313.676 13.0195C314.566 11.7305 315.836 11.0859 317.484 11.0859C318.859 11.0859 319.883 11.4883 320.555 12.293C321.227 13.0898 321.562 14.293 321.562 15.9023V24H318.164V15.9141C318.164 15.1953 318.023 14.6719 317.742 14.3438C317.461 14.0078 316.965 13.8398 316.254 13.8398C315.238 13.8398 314.535 14.3242 314.145 15.293L314.156 24H310.77V15.9258C310.77 15.1914 310.625 14.6602 310.336 14.332C310.047 14.0039 309.555 13.8398 308.859 13.8398C307.898 13.8398 307.203 14.2383 306.773 15.0352V24H303.387V11.3203H306.562ZM330.012 24.2344C328.152 24.2344 326.637 23.6641 325.465 22.5234C324.301 21.3828 323.719 19.8633 323.719 17.9648V17.6367C323.719 16.3633 323.965 15.2266 324.457 14.2266C324.949 13.2188 325.645 12.4453 326.543 11.9062C327.449 11.3594 328.48 11.0859 329.637 11.0859C331.371 11.0859 332.734 11.6328 333.727 12.7266C334.727 13.8203 335.227 15.3711 335.227 17.3789V18.7617H327.152C327.262 19.5898 327.59 20.2539 328.137 20.7539C328.691 21.2539 329.391 21.5039 330.234 21.5039C331.539 21.5039 332.559 21.0312 333.293 20.0859L334.957 21.9492C334.449 22.668 333.762 23.2305 332.895 23.6367C332.027 24.0352 331.066 24.2344 330.012 24.2344ZM329.625 13.8281C328.953 13.8281 328.406 14.0547 327.984 14.5078C327.57 14.9609 327.305 15.6094 327.188 16.4531H331.898V16.1836C331.883 15.4336 331.68 14.8555 331.289 14.4492C330.898 14.0352 330.344 13.8281 329.625 13.8281ZM340.277 11.3203L340.383 12.7852C341.289 11.6523 342.504 11.0859 344.027 11.0859C345.371 11.0859 346.371 11.4805 347.027 12.2695C347.684 13.0586 348.02 14.2383 348.035 15.8086V24H344.648V15.8906C344.648 15.1719 344.492 14.6523 344.18 14.332C343.867 14.0039 343.348 13.8398 342.621 13.8398C341.668 13.8398 340.953 14.2461 340.477 15.0586V24H337.09V11.3203H340.277ZM354.668 8.20312V11.3203H356.836V13.8047H354.668V20.1328C354.668 20.6016 354.758 20.9375 354.938 21.1406C355.117 21.3438 355.461 21.4453 355.969 21.4453C356.344 21.4453 356.676 21.418 356.965 21.3633V23.9297C356.301 24.1328 355.617 24.2344 354.914 24.2344C352.539 24.2344 351.328 23.0352 351.281 20.6367V13.8047H349.43V11.3203H351.281V8.20312H354.668Z" fill="#333333"/>
<rect x="1" y="30" width="102" height="2" fill="#CFB885"/>
<rect x="256" y="31" width="102" height="2" fill="#CFB885"/>
</svg>
